<?xml version="1.0" standalone="no"?>
<!DOCTYPE svg PUBLIC "-//W3C//DTD SVG 20010904//EN"
 "http://www.w3.org/TR/2001/REC-SVG-20010904/DTD/svg10.dtd">
<svg version="1.0" xmlns="http://www.w3.org/2000/svg"
 width="792.000000pt" height="836.000000pt" viewBox="0 0 792.000000 836.000000"
 preserveAspectRatio="xMidYMid meet">

<g transform="translate(0.000000,836.000000) scale(0.100000,-0.100000)"
fill="#000000" stroke="none">
<path d="M2350 5186 l0 -1336 180 0 180 0 0 575 0 575 207 -2 206 -3 237 -485
c130 -267 294 -600 363 -742 l127 -256 -95 -208 c-52 -114 -95 -213 -95 -220
0 -7 -74 -162 -165 -343 l-165 -331 188 0 188 0 154 320 c85 176 163 330 172
342 16 22 18 22 30 5 7 -10 83 -161 168 -337 l154 -320 187 0 187 0 -264 536
c-145 294 -264 538 -264 542 0 4 66 156 146 337 80 182 208 488 284 680 116
294 252 621 263 632 2 1 84 -31 182 -72 98 -41 180 -74 181 -72 2 2 26 57 54
122 28 66 54 126 57 133 3 6 0 12 -6 12 -6 0 -228 91 -494 201 -265 111 -489
204 -498 206 -13 4 -27 -22 -64 -114 -26 -65 -51 -123 -56 -129 -7 -8 43 -33
164 -84 l174 -72 -98 -216 c-53 -120 -163 -379 -244 -577 -81 -198 -155 -378
-165 -400 -10 -22 -33 -71 -51 -110 l-32 -70 -279 565 c-154 311 -280 569
-281 573 -1 5 24 17 55 27 152 48 309 182 381 325 60 120 85 292 67 466 -34
343 -200 534 -545 626 l-100 27 -487 4 -488 4 0 -1336z m904 1019 c89 -19 182
-63 235 -110 87 -79 140 -243 127 -396 -14 -171 -77 -272 -211 -339 -100 -50
-171 -60 -447 -60 l-248 0 0 460 0 460 238 0 c169 0 257 -5 306 -15z"/>
</g>
</svg>
